<svg xmlns="http://www.w3.org/2000/svg" viewBox="0 0 128 128">
  <defs>
    <linearGradient id="bg" x1="0" y1="0" x2="128" y2="128" gradientUnits="userSpaceOnUse">
      <stop offset="0%" stop-color="#14b8a6"/>
      <stop offset="100%" stop-color="#0d9488"/>
    </linearGradient>
  </defs>
  <!-- Superellipse background (n=5) -->
  <path d="M128,64 L127.95,85.5 127.78,92.34 127.51,97.29 127.12,101.27 126.62,104.65 126,107.58 125.27,110.18 124.42,112.5 123.45,114.59 122.34,116.48 121.1,118.18 119.72,119.72 118.18,121.1 116.48,122.34 114.59,123.45 112.5,124.42 110.18,125.27 107.58,126 104.65,126.62 101.27,127.12 97.29,127.51 92.34,127.78 85.5,127.95 64,128 42.5,127.95 35.66,127.78 30.71,127.51 26.73,127.12 23.35,126.62 20.42,126 17.82,125.27 15.5,124.42 13.41,123.45 11.52,122.34 9.82,121.1 8.28,119.72 6.9,118.18 5.66,116.48 4.55,114.59 3.58,112.5 2.73,110.18 2,107.58 1.38,104.65 0.88,101.27 0.49,97.29 0.22,92.34 0.05,85.5 0,64 0.05,42.5 0.22,35.66 0.49,30.71 0.88,26.73 1.38,23.35 2,20.42 2.73,17.82 3.58,15.5 4.55,13.41 5.66,11.52 6.9,9.82 8.28,8.28 9.82,6.9 11.52,5.66 13.41,4.55 15.5,3.58 17.82,2.73 20.42,2 23.35,1.38 26.73,0.88 30.71,0.49 35.66,0.22 42.5,0.05 64,0 85.5,0.05 92.34,0.22 97.29,0.49 101.27,0.88 104.65,1.38 107.58,2 110.18,2.73 112.5,3.58 114.59,4.55 116.48,5.66 118.18,6.9 119.72,8.28 121.1,9.82 122.34,11.52 123.45,13.41 124.42,15.5 125.27,17.82 126,20.42 126.62,23.35 127.12,26.73 127.51,30.71 127.78,35.66 127.95,42.5 Z"
        fill="url(#bg)"/>
  <!-- Checkmark -->
  <path d="M34 66 L54 86 L94 42"
        stroke="#fff" stroke-width="10"
        stroke-linecap="round" stroke-linejoin="round" fill="none"/>
</svg>
